<?xml version="1.0" standalone="no"?>
<!DOCTYPE svg PUBLIC "-//W3C//DTD SVG 20010904//EN"
 "http://www.w3.org/TR/2001/REC-SVG-20010904/DTD/svg10.dtd">
<svg version="1.0" xmlns="http://www.w3.org/2000/svg"
 width="545.000000pt" height="545.000000pt" viewBox="0 0 545.000000 545.000000"
 preserveAspectRatio="xMidYMid meet">
<metadata>
Created by potrace 1.14, written by Peter Selinger 2001-2017
</metadata>
<g transform="translate(0.000000,545.000000) scale(0.100000,-0.100000)"
fill="#000000" stroke="none">
<path d="M0 2725 l0 -2725 2725 0 2725 0 0 2725 0 2725 -2725 0 -2725 0 0
-2725z m4465 2599 c192 -57 331 -138 466 -273 191 -192 283 -401 296 -673 8
-174 13 -175 -146 27 -43 55 -89 109 -101 120 -12 11 -43 56 -68 100 -99 170
-221 289 -377 368 -154 78 -6 72 -1825 72 l-1625 0 -95 -33 c-288 -100 -483
-331 -536 -635 -19 -107 -14 -310 9 -392 44 -157 118 -284 239 -410 42 -44
109 -120 149 -170 151 -187 182 -220 203 -218 18 2 18 1 -4 -12 -19 -11 -64
-14 -183 -15 l-158 0 -39 31 c-48 39 -117 50 -155 25 -85 -56 -66 -198 32
-225 57 -16 120 14 143 68 l12 30 176 3 c145 2 179 0 194 -12 9 -8 54 -60 98
-115 99 -122 130 -160 169 -205 22 -24 27 -36 18 -42 -7 -4 -55 -8 -108 -8
l-96 0 -6 -47 c-3 -27 -9 -56 -12 -65 -7 -17 14 -18 336 -20 189 -1 372 -1
407 1 l62 3 0 -126 0 -126 -674 -2 c-647 -3 -675 -4 -695 -22 -27 -25 -28 -79
-1 -106 21 -21 70 -22 1190 -25 85 -1 161 -2 168 -3 17 -3 17 -268 0 -274 -7
-3 -55 -3 -106 -2 -82 2 -97 5 -118 25 l-24 22 -402 -2 c-395 -2 -403 -3 -425
-23 -28 -26 -30 -68 -4 -99 19 -24 21 -24 245 -27 l225 -3 3 -42 c2 -23 2 -77
0 -119 l-4 -78 -300 0 -300 0 -20 25 c-48 61 -126 68 -187 17 -35 -30 -48 -77
-37 -136 14 -73 110 -103 192 -59 l42 22 616 -6 617 -6 -3 -120 -3 -120 -391
2 -392 2 37 -75 36 -75 358 -1 357 0 0 -92 c1 -205 27 -286 118 -369 45 -42
134 -93 196 -113 10 -4 17 -8 15 -10 -12 -10 -1034 -16 -1119 -6 -168 19 -351
90 -464 179 -21 17 -45 31 -52 31 -8 0 -14 8 -14 18 0 12 -3 13 -8 4 -6 -9
-14 -7 -31 9 -18 17 -20 23 -9 30 10 7 9 9 -4 9 -11 0 -15 5 -12 15 5 11 2 13
-10 9 -9 -3 -16 -9 -16 -13 0 -4 -8 -7 -19 -8 -14 -1 -17 3 -13 19 3 13 1 19
-5 15 -6 -4 -13 -16 -16 -27 -3 -11 -1 -17 4 -14 5 3 12 -2 15 -11 7 -18 -15
-67 -27 -59 -14 8 -17 -11 -4 -23 10 -10 15 -7 20 15 l7 27 9 -23 c12 -32 -6
-68 -26 -52 -8 7 -19 9 -24 5 -7 -4 -8 1 -4 12 3 10 3 15 -2 11 -12 -11 -35
12 -35 35 0 11 -3 18 -6 14 -8 -7 -38 36 -87 124 -47 83 -103 253 -116 352 -8
53 -11 602 -11 1681 0 1363 2 1616 15 1687 37 212 133 387 299 547 158 152
336 240 544 271 31 5 797 8 1702 7 1632 -2 1646 -2 1715 -22z m-220 -474 c88
-9 112 -15 194 -55 283 -137 407 -464 300 -792 -11 -35 -24 -63 -28 -63 -10 0
-125 121 -145 153 -29 48 -46 108 -47 168 l-1 57 -72 7 c-41 4 -84 15 -102 26
-17 10 -38 19 -46 19 -9 0 -20 6 -26 13 -13 15 -17 112 -7 145 l7 22 -163 -1
c-90 -1 -202 -4 -249 -8 l-85 -8 75 -3 75 -3 -55 -7 -55 -7 55 -2 c50 -2 52
-4 28 -13 -16 -5 -28 -14 -28 -19 0 -6 -6 -7 -12 -2 -7 4 -5 -5 5 -20 19 -30
22 -41 7 -32 -5 3 -10 2 -10 -4 0 -6 -37 -12 -88 -14 -70 -2 -60 -4 58 -7
l145 -4 -115 -8 c-63 -4 -702 -11 -1420 -14 -1049 -4 -1307 -8 -1315 -18 -6
-7 -9 -64 -7 -134 3 -113 5 -122 23 -122 18 0 19 8 19 100 l0 100 1560 0 1560
-1 0 -359 0 -360 -94 0 -94 0 -7 190 -7 190 -94 0 -93 0 -3 -86 -3 -86 -260 1
c-143 0 -268 1 -277 1 -9 0 -31 12 -48 27 -26 22 -35 24 -49 15 -9 -7 -27 -18
-41 -24 -14 -7 -28 -17 -32 -22 -3 -5 -21 3 -39 18 -17 15 -36 23 -40 19 -5
-5 -9 -533 -10 -1173 -1 -1008 -8 -1494 -19 -1385 l-3 30 -7 -35 c-5 -24 -8 0
-9 76 -1 71 -7 130 -18 165 l-16 54 -9 -35 c-4 -19 -6 -53 -3 -75 3 -22 1 -47
-5 -55 -7 -11 -10 -2 -10 32 0 31 -6 52 -17 64 -17 17 -18 16 -24 -12 -4 -16
-8 -101 -9 -189 -2 -114 -5 -144 -10 -105 l-7 55 -1 -68 c-1 -38 -6 -66 -11
-63 -5 4 -8 -19 -7 -51 5 -94 7 -93 -149 -86 l-134 5 -3 -118 -3 -119 -29 3
c-16 2 -60 19 -97 38 -38 19 -75 34 -83 34 -8 0 -47 33 -88 73 -55 53 -84 92
-111 147 -77 157 -71 58 -75 1372 l-2 1177 -118 3 -117 3 98 95 c115 111 129
130 89 122 -15 -3 -124 -7 -242 -9 -118 -2 -222 -6 -230 -9 -8 -3 -113 -5
-232 -4 -203 1 -218 0 -219 -17 -1 -10 -1 -48 -1 -85 0 -89 -10 -97 -84 -68
-179 73 -327 232 -390 420 -26 76 -29 98 -28 210 0 107 4 136 27 205 73 221
251 377 461 405 90 11 2981 11 3101 0z m-295 -436 c0 -2 -12 -4 -27 -4 -21 0
-24 3 -14 9 13 8 41 5 41 -5z m-2720 -715 c0 -11 -4 -18 -10 -14 -5 3 -7 12
-3 20 7 21 13 19 13 -6z m-47 -49 c-3 -12 -8 -19 -11 -16 -5 6 5 36 12 36 2 0
2 -9 -1 -20z m34 -557 c-7 -6 -56 48 -57 62 0 6 14 -5 31 -23 17 -18 29 -36
26 -39z m147 49 c2 -4 -5 -9 -17 -9 -17 -2 -19 0 -7 7 18 12 18 12 24 2z
m-114 -27 c0 -12 -19 -12 -23 0 -4 9 -1 12 9 8 7 -3 14 -7 14 -8z m219 -32 c2
-21 3 -46 4 -55 1 -9 3 -15 5 -13 2 2 18 -13 36 -33 25 -27 43 -37 77 -41 l44
-6 5 -52 c3 -28 8 -53 10 -56 3 -2 29 -20 58 -41 28 -21 52 -40 52 -42 0 -2
-70 -4 -156 -4 l-155 0 -10 30 c-6 17 -15 30 -20 30 -5 0 -9 5 -9 11 0 9 -74
111 -105 145 -5 6 -17 22 -25 34 -8 13 -25 35 -37 50 -29 36 -29 44 3 59 23
10 25 10 19 -10 l-7 -21 21 21 c14 14 34 21 64 22 23 0 54 2 70 3 21 1 27 -3
27 -19 1 -18 1 -19 11 -2 5 9 7 22 3 29 -4 6 -3 8 3 5 5 -3 11 -23 12 -44z
m3329 -209 c12 -8 35 -26 50 -39 15 -13 46 -40 69 -60 24 -21 40 -42 37 -47
-3 -5 -17 0 -29 12 -47 44 -145 -3 -145 -70 0 -46 26 -89 58 -96 15 -3 32 -7
38 -9 6 -2 23 3 37 10 14 7 29 10 32 7 4 -4 5 -2 4 3 -2 6 1 21 5 34 6 19 10
21 18 10 7 -10 8 -8 3 8 -3 12 -1 24 5 28 5 3 10 12 10 18 0 7 -4 6 -11 -3 -9
-13 -10 -13 -6 0 7 26 32 17 29 -10 -1 -16 1 -20 6 -12 6 9 19 -1 48 -35 21
-25 44 -51 49 -58 6 -6 35 -39 65 -75 l55 -64 0 -211 c0 -115 -3 -244 -6 -285
-4 -41 -3 -57 1 -35 l7 40 1 -42 c1 -23 -2 -45 -8 -48 -6 -4 -10 -81 -10 -198
0 -106 -4 -197 -8 -203 -4 -6 -15 -10 -24 -8 -10 1 -18 -2 -18 -7 0 -6 -4 -7
-10 -4 -15 9 -12 25 5 25 12 0 15 12 14 53 0 28 -3 46 -6 40 -10 -27 -33 -13
-33 20 0 17 -3 43 -7 57 -6 19 -11 6 -23 -60 -11 -62 -19 -85 -30 -85 -10 0
-16 12 -18 35 -4 37 -22 57 -34 37 -5 -7 -8 0 -9 18 -1 21 -3 24 -6 10 -3 -11
-10 -23 -15 -26 -6 -4 -1 -10 11 -14 15 -5 20 -12 16 -28 -3 -12 -7 -35 -10
-52 -3 -16 -8 -45 -11 -62 -3 -18 -3 -49 0 -68 5 -27 12 -35 29 -35 18 0 19
-2 7 -11 -11 -8 -12 -12 -2 -16 20 -8 14 -29 -14 -43 -22 -12 -25 -19 -19 -47
7 -38 -1 -44 -15 -11 -8 20 -9 18 -9 -14 -1 -37 12 -51 22 -25 3 6 6 1 6 -13
0 -31 -37 -143 -38 -116 -1 15 -4 17 -13 8 -8 -8 -8 -15 1 -26 10 -12 10 -20
0 -38 l-13 -23 -7 25 c-4 18 -6 13 -6 -20 1 -36 -7 -57 -38 -105 -46 -71 -161
-186 -232 -231 -107 -69 -285 -126 -369 -118 -24 2 -46 0 -49 -6 -4 -6 -86
-10 -216 -10 l-210 0 3 128 3 127 112 3 c99 2 114 0 130 -16 17 -19 97 -37 87
-20 -3 4 1 8 9 8 8 0 20 7 27 15 10 12 44 15 187 15 96 0 172 -4 169 -8 -2 -4
27 -8 66 -7 50 0 72 4 74 13 1 7 0 8 -3 2 -2 -5 -9 -10 -14 -10 -5 0 -3 13 6
29 8 17 12 38 9 48 -4 13 -3 15 4 5 7 -11 11 -10 16 4 6 16 9 16 17 4 7 -11 8
-6 3 15 -9 38 -14 44 -14 17 0 -26 -20 -30 -21 -4 0 14 -2 14 -8 -3 -8 -19 -8
-19 -19 1 -10 18 -17 20 -54 14 -24 -3 -55 -14 -69 -23 -23 -15 -48 -17 -180
-15 l-154 3 -3 138 c-2 93 1 136 8 132 5 -3 10 -3 10 2 0 4 78 8 174 8 103 0
172 -4 168 -9 -3 -5 2 -7 11 -3 10 3 17 2 17 -3 0 -5 11 -12 25 -16 14 -3 25
-10 25 -15 0 -5 5 -9 11 -9 5 0 7 5 4 10 -4 6 11 10 39 10 40 0 47 4 66 34 19
32 36 151 19 140 -4 -2 -9 -1 -12 3 -2 5 -2 1 0 -7 2 -8 -6 -5 -17 9 -16 19
-30 24 -69 24 -53 0 -86 -19 -118 -65 l-18 -28 -188 0 c-168 0 -191 2 -224 20
-33 17 -57 20 -176 20 l-138 0 3 123 3 122 168 0 168 0 19 -31 c30 -47 53 -63
105 -73 64 -12 123 15 155 71 l21 38 148 0 c132 0 150 -2 165 -19 9 -10 27
-21 39 -24 12 -2 31 -8 41 -12 12 -5 17 -5 13 1 -3 5 2 10 11 11 54 6 80 16
75 29 -4 10 0 12 10 8 16 -6 18 -1 32 68 1 9 -2 19 -9 21 -8 3 -8 10 2 26 9
16 10 27 2 41 -6 11 -13 20 -16 20 -2 0 0 -9 6 -20 6 -11 8 -20 4 -20 -9 0
-49 53 -47 62 6 16 -118 9 -145 -8 -12 -8 -26 -12 -31 -10 -5 3 -8 -2 -7 -12
1 -15 -14 -17 -156 -20 l-157 -3 -48 32 c-42 27 -54 30 -97 25 -29 -3 -61 -15
-80 -29 -29 -23 -40 -24 -211 -28 l-180 -4 -3 118 -3 117 286 0 286 0 24 24
c21 21 23 29 15 57 -6 18 -19 42 -30 54 -20 19 -30 20 -300 17 l-280 -3 0 116
0 115 178 1 c97 1 181 1 185 0 4 -1 21 6 37 14 37 19 216 21 223 3 3 -7 6 -1
6 13 1 15 4 41 7 58 l7 31 -103 0 c-87 0 -106 3 -127 20 -24 18 -41 20 -219
20 l-194 0 0 120 0 120 233 3 c127 1 300 2 382 2 l150 0 17 34 c15 30 15 37 2
62 -17 34 -56 46 -99 30 -17 -6 -65 -11 -106 -11 -89 0 -136 19 -189 77 -34
36 -80 97 -80 105 0 2 147 2 328 0 264 -3 331 -7 350 -18z m-2863 -1154 l0
-145 -235 0 -235 0 -3 118 -3 117 101 0 c102 0 132 8 160 41 12 15 30 17 115
16 l100 -2 0 -145z m1102 -327 c-2 -16 -4 -5 -4 22 0 28 2 40 4 28 2 -13 2
-35 0 -50z m-70 35 c-3 -8 -6 -5 -6 6 -1 11 2 17 5 13 3 -3 4 -12 1 -19z
m2190 -80 c-3 -7 -5 -2 -5 12 0 14 2 19 5 13 2 -7 2 -19 0 -25z m-1 -76 c-4
-3 -12 0 -18 6 -9 9 -9 12 0 12 7 0 13 10 13 23 2 17 3 15 6 -6 3 -16 2 -31
-1 -35z m44 7 c0 -5 -7 -9 -15 -9 -8 0 -15 7 -15 15 0 9 6 12 15 9 8 -4 15
-10 15 -15z m7 -51 c-3 -7 -5 -2 -5 12 0 14 2 19 5 13 2 -7 2 -19 0 -25z m-52
2 c8 -13 -5 -13 -25 0 -13 8 -13 10 2 10 9 0 20 -4 23 -10z m-8 -26 c-3 -3
-12 -4 -19 -1 -8 3 -5 6 6 6 11 1 17 -2 13 -5z m-1112 -196 c3 -18 5 -73 3
-123 l-3 -90 -100 -3 c-126 -4 -125 -5 -125 140 l0 108 110 0 109 0 6 -32z
m-3478 -440 c-3 -8 -6 -5 -6 6 -1 11 2 17 5 13 3 -3 4 -12 1 -19z m-32 -12
c18 7 30 -15 16 -29 -9 -9 -11 -8 -5 6 5 13 2 18 -7 17 -26 -4 -39 0 -39 12 0
9 3 9 11 1 6 -6 17 -9 24 -7z m3742 -102 c-3 -3 -12 -4 -19 -1 -8 3 -5 6 6 6
11 1 17 -2 13 -5z"/>
<path d="M490 3518 c-25 -27 -25 -49 -2 -79 24 -28 79 -31 98 -4 49 66 -40
143 -96 83z"/>
<path d="M481 2711 c-27 -27 -27 -51 0 -85 20 -26 62 -35 73 -17 10 16 91 38
111 31 18 -7 20 -4 17 30 l-4 38 -56 5 c-32 3 -71 8 -89 12 -24 5 -36 2 -52
-14z"/>
<path d="M497 1993 c-22 -25 -22 -76 1 -96 42 -38 102 -8 102 49 0 41 -11 54
-51 60 -26 4 -38 1 -52 -13z"/>
<path d="M923 1116 c3 -8 1 -17 -6 -20 -7 -2 -4 -5 6 -5 11 -1 17 6 17 19 0
11 -5 20 -11 20 -6 0 -9 -6 -6 -14z"/>
<path d="M885 1111 c-3 -5 -1 -12 5 -16 5 -3 10 1 10 9 0 18 -6 21 -15 7z"/>
<path d="M978 1109 c13 -5 20 -13 17 -19 -3 -5 -1 -10 4 -10 6 0 11 4 11 8 0
14 -23 32 -39 31 -10 0 -7 -4 7 -10z"/>
<path d="M898 1073 c7 -3 16 -2 19 1 4 3 -2 6 -13 5 -11 0 -14 -3 -6 -6z"/>
<path d="M940 1064 c0 -8 4 -13 9 -10 5 3 9 -12 9 -34 1 -38 -10 -53 -21 -30
-3 6 -4 5 -3 -2 4 -22 26 -20 36 4 9 21 10 20 6 -9 -3 -18 -1 -35 4 -38 6 -3
10 0 11 7 4 72 3 78 -8 73 -8 -2 -13 4 -13 16 0 11 5 17 10 14 6 -3 10 -1 10
5 0 7 -7 10 -15 6 -8 -3 -15 -1 -15 4 0 6 -4 10 -10 10 -5 0 -10 -7 -10 -16z"/>
<path d="M1020 1071 c0 -6 4 -13 10 -16 6 -3 7 1 4 9 -7 18 -14 21 -14 7z"/>
<path d="M816 891 c-3 -4 4 -17 17 -27 22 -19 22 -19 4 2 -9 11 -14 24 -10 27
3 4 4 7 0 7 -3 0 -8 -4 -11 -9z"/>
<path d="M845 880 c3 -5 8 -10 11 -10 2 0 4 5 4 10 0 6 -5 10 -11 10 -5 0 -7
-4 -4 -10z"/>
<path d="M888 863 c6 -2 18 -2 25 0 6 3 1 5 -13 5 -14 0 -19 -2 -12 -5z"/>
<path d="M1372 818 c-55 -27 -33 -111 30 -116 45 -4 68 18 68 64 0 30 -5 37
-35 50 -19 7 -36 14 -37 13 -2 0 -13 -5 -26 -11z"/>
<path d="M1686 804 c-9 -8 -16 -28 -16 -44 0 -38 24 -60 64 -60 58 0 89 66 48
103 -23 21 -76 22 -96 1z"/>
<path d="M3563 4533 c26 -2 67 -2 90 0 23 2 2 3 -48 3 -49 0 -68 -1 -42 -3z"/>
<path d="M3808 4493 c7 -3 16 -2 19 1 4 3 -2 6 -13 5 -11 0 -14 -3 -6 -6z"/>
<path d="M3043 1650 c0 -25 2 -35 4 -22 2 12 2 32 0 45 -2 12 -4 2 -4 -23z"/>
<path d="M4861 2128 c-13 -36 -68 -96 -103 -114 -29 -15 -29 -16 -12 -35 9
-10 14 -19 10 -19 -4 0 9 -16 30 -35 20 -19 41 -35 45 -35 23 0 78 38 113 76
l38 44 -25 42 c-14 24 -39 56 -56 72 l-30 29 -10 -25z"/>
<path d="M5213 2050 c0 -25 2 -35 4 -22 2 12 2 32 0 45 -2 12 -4 2 -4 -23z"/>
<path d="M5188 1558 c-5 -74 -4 -108 4 -108 4 0 8 29 8 65 0 61 -8 91 -12 43z"/>
<path d="M4737 1409 c7 -7 15 -10 18 -7 3 3 -2 9 -12 12 -14 6 -15 5 -6 -5z"/>
<path d="M4937 1374 c6 -15 23 -19 23 -5 0 5 -7 11 -14 14 -10 4 -13 1 -9 -9z"/>
<path d="M4932 1279 c1 -12 9 -24 16 -27 9 -3 13 3 10 19 -1 12 -9 24 -16 27
-9 3 -13 -3 -10 -19z"/>
<path d="M4771 1088 c-1 -9 -7 -18 -13 -21 -8 -2 -9 -8 -4 -13 5 -5 11 -4 13
4 3 8 9 10 16 3 9 -6 12 -2 14 16 0 16 -2 21 -7 13 -6 -10 -9 -9 -13 1 -4 10
-6 9 -6 -3z"/>
<path d="M4915 1041 c-6 -11 9 -23 19 -14 9 9 7 23 -3 23 -6 0 -12 -4 -16 -9z"/>
<path d="M4780 1029 c0 -5 5 -7 10 -4 6 3 10 8 10 11 0 2 -4 4 -10 4 -5 0 -10
-5 -10 -11z"/>
<path d="M4598 1023 c7 -3 16 -2 19 1 4 3 -2 6 -13 5 -11 0 -14 -3 -6 -6z"/>
<path d="M4580 999 c-12 -8 -9 -10 13 -6 15 2 27 0 27 -5 0 -5 13 -7 30 -3 20
4 37 2 48 -7 15 -11 16 -11 5 3 -7 9 -10 18 -7 22 3 3 -11 2 -30 -3 -21 -4
-36 -4 -36 1 0 12 -32 11 -50 -2z"/>
<path d="M4888 993 c7 -3 16 -2 19 1 4 3 -2 6 -13 5 -11 0 -14 -3 -6 -6z"/>
<path d="M4725 980 c3 -5 8 -10 11 -10 2 0 4 5 4 10 0 6 -5 10 -11 10 -5 0 -7
-4 -4 -10z"/>
<path d="M4796 967 c3 -10 9 -15 12 -12 3 3 0 11 -7 18 -10 9 -11 8 -5 -6z"/>
<path d="M4830 876 c0 -8 4 -17 9 -20 5 -4 7 3 4 14 -6 23 -13 26 -13 6z"/>
<path d="M4726 673 c-6 -14 -5 -15 5 -6 7 7 10 15 7 18 -3 3 -9 -2 -12 -12z"/>
</g>
</svg>
